# xmcd
#
# Track frame offsets:
#	160
#	22290
#	46250
#	66290
#	90220
#	114150
#	138150
#	161657
#	183180
#	203747
#
# Disc length: 2911 seconds
#
# Revision: 0
# Processed by: cddbd v1.5.1PL0 Copyright (c) Steve Scherf et al.
# Submitted via: dBpowerAMP V4.0
#
DISCID=7b0b5d0a
DTITLE=Восток - Best Микс
DYEAR=1998
DGENRE=Pop
TTITLE0=Только дождь
TTITLE1=До встречи
TTITLE2=Цыганская
TTITLE3=Все небо
TTITLE4=Столкновение
TTITLE5=Ты мой далекий друг
TTITLE6=Огонь любви
TTITLE7=Телефон
TTITLE8=Миражи
TTITLE9=Ибица
EXTD=
EXTT0=
EXTT1=
EXTT2=
EXTT3=
EXTT4=
EXTT5=
EXTT6=
EXTT7=
EXTT8=
EXTT9=
PLAYORDER=
